# xmcd CD database file
#
# Track frame offsets:
#	150
#	16627
#	34898
#	49219
#	63666
#	78945
#	90264
#	109712
#	127088
#	158406
#	179495
#	201768
#	214289
#	235574
#	252703
#	274903
#	293784
#	309269
#
# Disc length: 4431 seconds
#
# Revision: 0
# Processed by: cddbd v1.5.1PL2 Copyright (c) Steve Scherf et al.
# Submitted via: CDex 1.51
#
DISCID=f7114d12
DTITLE=Nina Simone - The Essential Nina Simone
DYEAR=1900
DGENRE=Jazz
TTITLE0=My Baby Just Cares For Me
TTITLE1=Mood Indigo
TTITLE2=He's Got The Whole World In His Hands
TTITLE3=Don't Smoke In Bed
TTITLE4=Love Me Of Leave Me
TTITLE5=He Needs Me
TTITLE6=Little Girl Blue
TTITLE7=Plain Gold Ring
TTITLE8=House Of The Rising Sun
TTITLE9=Ain't Got No/I Got Life
TTITLE10=Gin House Blues
TTITLE11=Ain't No Us
TTITLE12=Mississipi Goddam
TTITLE13=See line Women
TTITLE14=Four Women
TTITLE15=I Loves You Porgy
TTITLE16=I Sing Just To Know That I'm Alive
TTITLE17=Fodder On Her Wings
EXTD=
EXTT0=
EXTT1=
EXTT2=
EXTT3=
EXTT4=
EXTT5=
EXTT6=
EXTT7=
EXTT8=
EXTT9=
EXTT10=
EXTT11=
EXTT12=
EXTT13=
EXTT14=
EXTT15=
EXTT16=
EXTT17=
PLAYORDER=
